<?xml version="1.0" encoding="UTF-8"?>
<!DOCTYPE svg PUBLIC "-//W3C//DTD SVG 1.1//EN" "http://www.w3.org/Graphics/SVG/1.1/DTD/svg11.dtd">
<svg xmlns="http://www.w3.org/2000/svg" version="1.1" width="1080px" height="704px" style="shape-rendering:geometricPrecision; text-rendering:geometricPrecision; image-rendering:optimizeQuality; fill-rule:evenodd; clip-rule:evenodd" xmlns:xlink="http://www.w3.org/1999/xlink">
<g><path style="opacity:0.964" fill="#fcfdfd" d="M 208.5,41.5 C 254.168,41.3333 299.835,41.5 345.5,42C 351.103,42.5508 355.603,45.0508 359,49.5C 373.333,76.8333 387.667,104.167 402,131.5C 402.333,107.167 402.667,82.8333 403,58.5C 404.167,49.3333 409.333,44.1667 418.5,43C 456.547,42.0247 494.547,42.358 532.5,44C 539.961,46.4657 544.128,51.6324 545,59.5C 545.333,86.1667 545.667,112.833 546,139.5C 581.261,108.117 616.428,76.6172 651.5,45C 654.363,43.6011 657.363,42.6011 660.5,42C 705.5,41.3333 750.5,41.3333 795.5,42C 798,42.5 800.5,43 803,43.5C 855.482,42.3443 907.982,42.1776 960.5,43C 1021.14,56.3064 1058.64,93.1397 1073,153.5C 1079.72,210.55 1059.88,255.716 1013.5,289C 1001.32,296.503 988.321,302.169 974.5,306C 968.527,306.907 962.527,307.573 956.5,308C 939.5,308.167 922.5,308.333 905.5,308.5C 887.117,308.641 868.784,308.141 850.5,307C 847.048,306.108 844.048,304.442 841.5,302C 823.313,286.312 804.98,270.812 786.5,255.5C 785.667,304.497 785.167,353.497 785,402.5C 784.128,410.368 779.961,415.534 772.5,418C 737.214,419.64 701.88,419.973 666.5,419C 660.791,418.478 655.125,416.812 649.5,414C 615.303,380.802 580.803,347.968 546,315.5C 545.667,343.833 545.333,372.167 545,400.5C 542.677,411.483 535.844,417.65 524.5,419C 486.167,419.667 447.833,419.667 409.5,419C 403.377,418.356 398.544,415.522 395,410.5C 354.587,336.673 313.92,263.006 273,189.5C 232.333,263.5 191.667,337.5 151,411.5C 147.603,415.949 143.103,418.449 137.5,419C 99.1667,419.667 60.8333,419.667 22.5,419C 8.11488,415.397 3.28155,406.563 8,392.5C 70.2184,279.391 131.885,166.058 193,52.5C 196.432,46.2159 201.598,42.5492 208.5,41.5 Z M 785.5,163.5 C 830.835,163.333 876.168,163.5 921.5,164C 931.807,167.442 937.141,174.609 937.5,185.5C 937.409,196.091 932.409,203.258 922.5,207C 876.835,207.5 831.168,207.667 785.5,207.5C 785.5,192.833 785.5,178.167 785.5,163.5 Z M 646.5,213.5 C 647.657,221.656 647.823,229.99 647,238.5C 642.199,234.701 637.699,230.534 633.5,226C 638.292,222.278 642.625,218.111 646.5,213.5 Z"/></g>
<g><path style="opacity:1" fill="#4468a6" d="M 661.5,59.5 C 705.669,58.1691 750.002,58.1691 794.5,59.5C 794.376,60.1067 794.043,60.44 793.5,60.5C 749.67,59.5013 705.67,59.168 661.5,59.5 Z"/></g>
<g><path style="opacity:1" fill="#989898" d="M 768.5,273.5 C 733.76,273.826 699.094,273.493 664.5,272.5C 664.111,243.164 663.944,213.831 664,184.5C 710.859,142.971 757.692,101.471 804.5,60C 856.167,59.3333 907.833,59.3333 959.5,60C 1015.12,73.2903 1047.62,108.124 1057,164.5C 1059.65,211.372 1041.81,248.205 1003.5,275C 993.847,280.438 983.847,285.105 973.5,289C 969.469,289.481 965.469,290.147 961.5,291C 925.833,291.667 890.167,291.667 854.5,291C 828.275,269.394 802.275,247.561 776.5,225.5C 824.83,224.667 873.163,224.167 921.5,224C 946.118,217.042 956.618,200.875 953,175.5C 947.768,159.601 936.935,150.101 920.5,147C 870.167,146.333 819.833,146.333 769.5,147C 768.503,189.094 768.17,231.261 768.5,273.5 Z M 785.5,163.5 C 785.5,178.167 785.5,192.833 785.5,207.5C 831.168,207.667 876.835,207.5 922.5,207C 932.409,203.258 937.409,196.091 937.5,185.5C 937.141,174.609 931.807,167.442 921.5,164C 876.168,163.5 830.835,163.333 785.5,163.5 Z"/></g>
<g><path style="opacity:1" fill="#1e4390" d="M 347.5,65.5 C 347.44,66.0431 347.107,66.3764 346.5,66.5C 345.772,64.8068 344.772,63.3068 343.5,62C 298.489,62.1628 253.822,61.3294 209.5,59.5C 254.331,58.3352 299.331,58.1685 344.5,59C 345.412,61.2508 346.412,63.4175 347.5,65.5 Z"/></g>
<g><path style="opacity:1" fill="#073789" d="M 661.5,59.5 C 705.67,59.168 749.67,59.5013 793.5,60.5C 792.833,60.8333 792.167,61.1667 791.5,61.5C 747.82,62.1614 704.487,61.4947 661.5,59.5 Z"/></g>
<g><path style="opacity:1" fill="#1a4793" d="M 209.5,59.5 C 253.822,61.3294 298.489,62.1628 343.5,62C 344.772,63.3068 345.772,64.8068 346.5,66.5C 347.107,66.3764 347.44,66.0431 347.5,65.5C 369.053,104.787 390.053,144.454 410.5,184.5C 407.977,185.254 405.311,185.92 402.5,186.5C 365.543,185.506 328.543,185.173 291.5,185.5C 285.868,175.372 280.035,165.372 274,155.5C 272.739,155.759 271.739,156.426 271,157.5C 265.937,166.391 261.104,175.391 256.5,184.5C 252.606,185.593 248.606,186.26 244.5,186.5C 209.833,185.833 175.167,185.167 140.5,184.5C 162.943,142.484 185.943,100.817 209.5,59.5 Z"/></g>
<g><path style="opacity:1" fill="#1a4793" d="M 527.5,59.5 C 527.5,59.8333 527.5,60.1667 527.5,60.5C 491.833,60.5 456.167,60.5 420.5,60.5C 420.333,103.835 420.5,147.168 421,190.5C 421.5,147.835 421.667,105.168 421.5,62.5C 456.833,62.5 492.167,62.5 527.5,62.5C 527.5,100.5 527.5,138.5 527.5,176.5C 528.791,176.737 529.791,176.404 530.5,175.5C 574.167,136.833 617.833,98.1667 661.5,59.5C 704.487,61.4947 747.82,62.1614 791.5,61.5C 731.23,115.264 671.063,169.264 611,223.5C 610.333,224.833 610.333,226.167 611,227.5C 628.31,243.31 644.81,259.977 660.5,277.5C 661.161,318.18 660.494,358.514 658.5,398.5C 616.193,358.528 573.86,318.528 531.5,278.5C 531.5,277.833 531.167,277.5 530.5,277.5C 529.791,276.596 528.791,276.263 527.5,276.5C 527.832,316.67 527.499,356.67 526.5,396.5C 491.491,327.812 455.991,259.478 420,191.5C 419.5,147.501 419.333,103.501 419.5,59.5C 455.5,59.5 491.5,59.5 527.5,59.5 Z"/></g>
<g><path style="opacity:1" fill="#063588" d="M 527.5,60.5 C 527.5,61.1667 527.5,61.8333 527.5,62.5C 492.167,62.5 456.833,62.5 421.5,62.5C 421.667,105.168 421.5,147.835 421,190.5C 420.5,147.168 420.333,103.835 420.5,60.5C 456.167,60.5 491.833,60.5 527.5,60.5 Z"/></g>
<g><path style="opacity:1" fill="#476ca9" d="M 527.5,60.5 C 528.167,98.8333 528.833,137.167 529.5,175.5C 529.833,175.5 530.167,175.5 530.5,175.5C 529.791,176.404 528.791,176.737 527.5,176.5C 527.5,138.5 527.5,100.5 527.5,62.5C 527.5,61.8333 527.5,61.1667 527.5,60.5 Z"/></g>
<g><path style="opacity:1" fill="#e5eaf2" d="M 527.5,60.5 C 527.5,60.1667 527.5,59.8333 527.5,59.5C 529.494,97.8189 530.161,136.486 529.5,175.5C 528.833,137.167 528.167,98.8333 527.5,60.5 Z"/></g>
<g><path style="opacity:1" fill="#7b879a" d="M 140.5,184.5 C 175.167,185.167 209.833,185.833 244.5,186.5C 209.5,186.5 174.5,186.5 139.5,186.5C 139.328,185.508 139.662,184.842 140.5,184.5 Z"/></g>
<g><path style="opacity:1" fill="#989899" d="M 256.5,184.5 C 217.124,257.073 177.457,329.573 137.5,402C 99.1681,402.5 60.8348,402.667 22.5,402.5C 60.5926,330.057 99.5926,258.057 139.5,186.5C 174.5,186.5 209.5,186.5 244.5,186.5C 248.606,186.26 252.606,185.593 256.5,184.5 Z"/></g>
<g><path style="opacity:1" fill="#989899" d="M 410.5,184.5 C 446.682,252.866 482.849,321.2 519,389.5C 521.386,393.604 523.219,397.938 524.5,402.5C 486.165,402.667 447.832,402.5 409.5,402C 369.262,330.36 329.929,258.193 291.5,185.5C 328.543,185.173 365.543,185.506 402.5,186.5C 405.311,185.92 407.977,185.254 410.5,184.5 Z"/></g>
<g><path style="opacity:1" fill="#858c97" d="M 664.5,272.5 C 699.094,273.493 733.76,273.826 768.5,273.5C 768.5,273.833 768.5,274.167 768.5,274.5C 767.833,274.5 767.167,274.5 766.5,274.5C 733.5,274.5 700.5,274.5 667.5,274.5C 666.508,274.328 665.842,274.662 665.5,275.5C 664.596,274.791 664.263,273.791 664.5,272.5 Z"/></g>
<g><path style="opacity:1" fill="#5a7ab1" d="M 660.5,277.5 C 661.831,318.335 661.831,359.335 660.5,400.5C 659.478,400.145 658.811,399.478 658.5,398.5C 660.494,358.514 661.161,318.18 660.5,277.5 Z"/></g>
<g><path style="opacity:1" fill="#e4eaf2" d="M 530.5,277.5 C 531.167,277.5 531.5,277.833 531.5,278.5C 529.836,318.825 528.836,359.492 528.5,400.5C 527.702,400.043 527.369,399.376 527.5,398.5C 527.835,357.99 528.835,317.656 530.5,277.5 Z"/></g>
<g><path style="opacity:1" fill="#466ca9" d="M 530.5,277.5 C 528.835,317.656 527.835,357.99 527.5,398.5C 527.167,397.833 526.833,397.167 526.5,396.5C 527.499,356.67 527.832,316.67 527.5,276.5C 528.791,276.263 529.791,276.596 530.5,277.5 Z"/></g>
<g><path style="opacity:1" fill="#153f8e" d="M 667.5,274.5 C 667.5,316.167 667.5,357.833 667.5,399.5C 700.5,399.5 733.5,399.5 766.5,399.5C 766.5,357.833 766.5,316.167 766.5,274.5C 767.167,274.5 767.833,274.5 768.5,274.5C 768.5,316.833 768.5,359.167 768.5,401.5C 734.167,401.5 699.833,401.5 665.5,401.5C 665.5,359.5 665.5,317.5 665.5,275.5C 665.842,274.662 666.508,274.328 667.5,274.5 Z"/></g>
<g><path style="opacity:1" fill="#1a4893" d="M 667.5,274.5 C 700.5,274.5 733.5,274.5 766.5,274.5C 766.5,316.167 766.5,357.833 766.5,399.5C 733.5,399.5 700.5,399.5 667.5,399.5C 667.5,357.833 667.5,316.167 667.5,274.5 Z"/></g>
<g><path style="opacity:0.975" fill="#fbfcfd" d="M 754.5,515.5 C 762.017,514.7 768.851,516.367 775,520.5C 778.375,526.331 780.042,532.665 780,539.5C 781.912,541.657 783.579,543.991 785,546.5C 790.901,537.755 798.734,535.255 808.5,539C 814.09,543.045 819.59,547.212 825,551.5C 835.862,544.951 847.362,543.784 859.5,548C 862.341,549.586 865.007,551.42 867.5,553.5C 873.39,550.143 879.723,548.809 886.5,549.5C 887.44,546.286 888.94,543.286 891,540.5C 895,535.167 899,529.833 903,524.5C 906.631,520.562 911.131,518.229 916.5,517.5C 928.311,519.032 937.478,524.698 944,534.5C 945.511,537.824 946.011,541.157 945.5,544.5C 959.896,547.396 968.396,556.063 971,570.5C 972.442,581.397 970.109,591.397 964,600.5C 959.609,604.778 954.443,607.611 948.5,609C 931.5,609.333 914.5,609.667 897.5,610C 889.78,621.846 878.78,628.68 864.5,630.5C 859.861,629.901 855.694,628.234 852,625.5C 844.826,630.181 837.326,631.014 829.5,628C 826.667,626.5 824.5,624.333 823,621.5C 821.133,616.898 819.466,612.232 818,607.5C 807.114,611.077 796.947,609.577 787.5,603C 785.641,601.442 784.141,599.609 783,597.5C 778.756,603.708 772.922,607.542 765.5,609C 748.308,609.184 731.141,609.351 714,609.5C 709.165,609.671 704.498,609.004 700,607.5C 697.138,614.719 692.304,620.219 685.5,624C 679.363,626.735 673.03,628.902 666.5,630.5C 663.456,629.822 660.456,628.989 657.5,628C 655.004,626.446 652.837,624.613 651,622.5C 644.092,626.471 636.758,629.471 629,631.5C 623.716,630.856 619.216,628.689 615.5,625C 606.833,624.667 598.167,624.333 589.5,624C 578.29,621.994 570.457,615.828 566,605.5C 557.523,610.414 548.857,610.747 540,606.5C 536.666,608.042 533.166,609.042 529.5,609.5C 528.577,622.066 521.744,628.066 509,627.5C 500.194,627.935 493.861,624.269 490,616.5C 487.463,619.372 484.63,621.872 481.5,624C 475.306,626.953 468.806,629.12 462,630.5C 457.554,629.799 453.554,628.132 450,625.5C 432.346,634.737 421.346,629.737 417,610.5C 416.481,609.484 415.647,608.818 414.5,608.5C 395.191,609.642 375.858,609.809 356.5,609C 354.782,608.654 353.115,608.154 351.5,607.5C 344.447,621.027 333.28,629.027 318,631.5C 311.052,630.198 305.385,626.865 301,621.5C 289.307,624.863 277.474,625.363 265.5,623C 258.791,620.399 253.291,616.232 249,610.5C 246.164,618.337 242.664,625.837 238.5,633C 230.646,637.594 222.313,638.594 213.5,636C 208.056,634.058 205.056,630.225 204.5,624.5C 198.329,626.89 191.996,628.89 185.5,630.5C 179.708,629.968 174.875,627.635 171,623.5C 164.996,626.897 158.496,628.231 151.5,627.5C 135.475,629.944 126.642,623.277 125,607.5C 116.162,602.32 110.829,594.653 109,584.5C 108.333,568.5 108.333,552.5 109,536.5C 110.167,527.333 115.333,522.167 124.5,521C 136.261,519.455 143.761,524.288 147,535.5C 147.333,541.5 147.667,547.5 148,553.5C 156.214,546.064 165.381,544.731 175.5,549.5C 188.673,543.5 201.34,544.334 213.5,552C 214.787,553.41 215.954,554.91 217,556.5C 224.827,546.751 234.66,544.251 246.5,549C 248.57,549.948 250.07,551.448 251,553.5C 254.988,551.794 259.154,550.627 263.5,550C 266.532,545.316 270.865,542.65 276.5,542C 283.857,540.963 290.357,542.796 296,547.5C 295.146,525.363 305.313,517.196 326.5,523C 330.026,525.026 332.693,527.859 334.5,531.5C 339.133,522.769 346.467,519.269 356.5,521C 364.292,521.972 369.458,526.138 372,533.5C 382.106,517.969 393.439,516.969 406,530.5C 409.157,534.959 410.324,539.792 409.5,545C 419.667,545.856 427.167,550.689 432,559.5C 429.811,536.118 440.311,527.618 463.5,534C 466.333,535.5 468.5,537.667 470,540.5C 470.863,543.959 472.03,547.293 473.5,550.5C 482.02,548.462 489.353,550.462 495.5,556.5C 501.316,551.379 507.982,549.713 515.5,551.5C 515.985,544.039 517.151,536.706 519,529.5C 522.963,523.497 528.629,520.497 536,520.5C 538.811,520.703 541.478,521.369 544,522.5C 550.512,519.871 557.012,520.038 563.5,523C 568.491,526.469 571.324,531.303 572,537.5C 572.5,543.825 572.666,550.158 572.5,556.5C 580.922,557.41 587.589,554.576 592.5,548C 602.79,541.292 613.79,539.626 625.5,543C 629.358,545.358 632.358,548.525 634.5,552.5C 640.394,550.358 646.394,550.025 652.5,551.5C 661.1,546.352 670.434,544.352 680.5,545.5C 678.992,527.842 686.992,519.675 704.5,521C 712.541,521.85 717.541,526.183 719.5,534C 726.226,533.105 732.892,533.605 739.5,535.5C 739.247,524.599 744.247,517.933 754.5,515.5 Z"/></g>
<g><path style="opacity:1" fill="#204993" d="M 755.5,531.5 C 758.167,531.5 760.833,531.5 763.5,531.5C 763.5,534.5 763.5,537.5 763.5,540.5C 760.881,540.768 758.381,540.435 756,539.5C 755.503,536.854 755.336,534.187 755.5,531.5 Z"/></g>
<g><path style="opacity:1" fill="#1b4792" d="M 349.5,536.5 C 351.792,536.244 353.959,536.577 356,537.5C 356.333,552.5 356.667,567.5 357,582.5C 357.5,583 358,583.5 358.5,584C 375.833,584.667 393.167,584.667 410.5,584C 411,583.5 411.5,583 412,582.5C 412.667,579.167 412.667,575.833 412,572.5C 411.5,572 411,571.5 410.5,571C 398.167,570.667 385.833,570.333 373.5,570C 372,568.5 370.5,567 369,565.5C 370.819,562.282 372.819,558.948 375,555.5C 379.674,549.331 384.507,543.331 389.5,537.5C 391.5,538.833 393.167,540.5 394.5,542.5C 390.5,548.167 386.5,553.833 382.5,559.5C 382.709,560.086 383.043,560.586 383.5,561C 393.906,561.073 404.239,561.74 414.5,563C 418.728,566.679 420.395,571.346 419.5,577C 420.61,584.39 417.944,589.724 411.5,593C 392.743,593.974 374.076,593.64 355.5,592C 352.865,590.039 351.031,587.539 350,584.5C 349.5,568.503 349.333,552.503 349.5,536.5 Z"/></g>
<g><path style="opacity:1" fill="#6780b2" d="M 539.5,538.5 C 537.5,538.5 535.5,538.5 533.5,538.5C 533.829,552.677 533.496,566.677 532.5,580.5C 532.333,566.163 532.5,551.829 533,537.5C 535.552,535.98 537.718,536.313 539.5,538.5 Z"/></g>
<g><path style="opacity:1" fill="#1c4793" d="M 130.5,537.5 C 131.331,551.994 131.831,566.661 132,581.5C 132.833,582.333 133.667,583.167 134.5,584C 142.167,584.667 149.833,584.667 157.5,584C 159.495,581.2 160.495,578.033 160.5,574.5C 160.237,570.4 160.57,566.4 161.5,562.5C 163.467,562.261 165.301,562.594 167,563.5C 167.856,571.232 167.523,578.898 166,586.5C 164.5,588.333 163,590.167 161.5,592C 151.908,593.587 142.242,593.92 132.5,593C 129.614,591.615 127.614,589.449 126.5,586.5C 125.395,570.525 125.228,554.525 126,538.5C 127.356,537.62 128.856,537.286 130.5,537.5 Z"/></g>
<g><path style="opacity:1" fill="#1d4993" d="M 319.5,538.5 C 318.503,555.992 318.17,573.659 318.5,591.5C 316.801,591.34 315.134,591.506 313.5,592C 315.382,592.198 317.048,592.698 318.5,593.5C 316.5,593.5 314.5,593.5 312.5,593.5C 312.333,574.83 312.5,556.164 313,537.5C 315.552,535.98 317.718,536.313 319.5,538.5 Z"/></g>
<g><path style="opacity:1" fill="#204994" d="M 539.5,538.5 C 540.661,552.661 540.827,566.994 540,581.5C 538.992,585.677 536.825,589.177 533.5,592C 525.079,594.394 516.912,593.894 509,590.5C 507.274,590.946 505.774,591.779 504.5,593C 497.174,593.5 489.841,593.666 482.5,593.5C 480.588,606.124 473.255,612.79 460.5,613.5C 459.833,611.181 459.666,608.847 460,606.5C 463.963,605.4 467.797,603.9 471.5,602C 473.317,600.2 474.484,598.034 475,595.5C 475.5,585.506 475.666,575.506 475.5,565.5C 477.833,565.5 480.167,565.5 482.5,565.5C 482.334,570.844 482.501,576.177 483,581.5C 483.692,582.025 484.192,582.692 484.5,583.5C 490.472,584.664 496.472,584.83 502.5,584C 503.025,583.308 503.692,582.808 504.5,582.5C 506.271,577.311 507.271,571.978 507.5,566.5C 509.792,566.244 511.959,566.577 514,567.5C 514.54,571.351 514.374,575.185 513.5,579C 513.354,581.034 514.02,582.701 515.5,584C 520.5,584.667 525.5,584.667 530.5,584C 531.305,582.887 531.972,581.721 532.5,580.5C 533.496,566.677 533.829,552.677 533.5,538.5C 535.5,538.5 537.5,538.5 539.5,538.5 Z"/></g>
<g><path style="opacity:1" fill="#1e4893" d="M 876.5,598.5 C 878.476,588.219 879.143,577.552 878.5,566.5C 880.56,565.189 882.726,565.189 885,566.5C 885.333,571.833 885.667,577.167 886,582.5C 886.5,583 887,583.5 887.5,584C 906.833,584.667 926.167,584.667 945.5,584C 947.045,582.178 947.712,580.011 947.5,577.5C 947.712,574.989 947.045,572.822 945.5,571C 933.167,570.667 920.833,570.333 908.5,570C 907.36,568.027 906.027,566.193 904.5,564.5C 906.038,562.757 907.038,560.757 907.5,558.5C 912.73,552.387 917.73,546.054 922.5,539.5C 923.458,539.047 924.292,538.381 925,537.5C 927.027,538.693 928.527,540.36 929.5,542.5C 926.195,547.638 922.695,552.638 919,557.5C 918.51,558.793 918.343,560.127 918.5,561.5C 928.172,561.334 937.839,561.5 947.5,562C 953.689,565.007 956.355,570.007 955.5,577C 955.732,583.869 953.065,589.203 947.5,593C 926.836,593.5 906.169,593.667 885.5,593.5C 883.593,605.407 876.593,612.407 864.5,614.5C 862.912,612.887 861.912,610.887 861.5,608.5C 861.833,607.833 862.167,607.167 862.5,606.5C 868.421,605.873 873.088,603.206 876.5,598.5 Z"/></g>
<g><path style="opacity:1" fill="#b8c0d6" d="M 920.5,539.5 C 921.167,539.5 921.833,539.5 922.5,539.5C 917.73,546.054 912.73,552.387 907.5,558.5C 906.833,558.5 906.167,558.5 905.5,558.5C 909.788,551.582 914.788,545.249 920.5,539.5 Z"/></g>
<g><path style="opacity:1" fill="#4b6aa5" d="M 704.5,581.5 C 703.504,567.343 703.171,553.01 703.5,538.5C 701.5,538.5 699.5,538.5 697.5,538.5C 697.198,553.881 697.531,569.215 698.5,584.5C 697.883,584.389 697.383,584.056 697,583.5C 696.176,567.926 696.343,552.426 697.5,537C 699.769,536.242 701.936,536.409 704,537.5C 704.5,552.163 704.667,566.83 704.5,581.5 Z"/></g>
<g><path style="opacity:1" fill="#3c5d9c" d="M 130.5,537.5 C 128.856,537.286 127.356,537.62 126,538.5C 125.228,554.525 125.395,570.525 126.5,586.5C 125.732,585.737 125.232,584.737 125,583.5C 124.333,568.167 124.333,552.833 125,537.5C 126.943,536.193 128.777,536.193 130.5,537.5 Z"/></g>
<g><path style="opacity:1" fill="#023589" d="M 319.5,538.5 C 319.83,557.008 319.497,575.341 318.5,593.5C 317.048,592.698 315.382,592.198 313.5,592C 315.134,591.506 316.801,591.34 318.5,591.5C 318.17,573.659 318.503,555.992 319.5,538.5 Z"/></g>
<g><path style="opacity:1" fill="#486aa5" d="M 555.5,593.5 C 555.5,575.167 555.5,556.833 555.5,538.5C 553.5,538.5 551.5,538.5 549.5,538.5C 549.5,556.833 549.5,575.167 549.5,593.5C 548.338,575.005 548.171,556.338 549,537.5C 551.333,536.167 553.667,536.167 556,537.5C 556.829,556.338 556.662,575.005 555.5,593.5 Z"/></g>
<g><path style="opacity:1" fill="#164390" d="M 555.5,593.5 C 553.5,593.5 551.5,593.5 549.5,593.5C 549.5,575.167 549.5,556.833 549.5,538.5C 551.5,538.5 553.5,538.5 555.5,538.5C 555.5,556.833 555.5,575.167 555.5,593.5 Z"/></g>
<g><path style="opacity:1" fill="#3c60a2" d="M 448.5,547.5 C 451.167,547.5 453.833,547.5 456.5,547.5C 456.5,550.833 456.5,554.167 456.5,557.5C 453.833,557.5 451.167,557.5 448.5,557.5C 448.5,554.167 448.5,550.833 448.5,547.5 Z"/></g>
<g><path style="opacity:1" fill="#13408f" d="M 449.5,548.5 C 451.5,548.5 453.5,548.5 455.5,548.5C 455.5,551.167 455.5,553.833 455.5,556.5C 453.5,556.5 451.5,556.5 449.5,556.5C 449.5,553.833 449.5,551.167 449.5,548.5 Z"/></g>
<g><path style="opacity:1" fill="#1b4793" d="M 704.5,581.5 C 704.953,582.458 705.619,583.292 706.5,584C 711.167,584.667 715.833,584.667 720.5,584C 722.215,583.223 723.215,581.89 723.5,580C 724.622,575.559 725.289,571.059 725.5,566.5C 727.792,566.244 729.959,566.577 732,567.5C 732.54,571.351 732.374,575.185 731.5,579C 731.354,581.034 732.02,582.701 733.5,584C 743.167,584.667 752.833,584.667 762.5,584C 764.155,582.556 764.822,580.722 764.5,578.5C 750.701,580.862 744.535,575.196 746,561.5C 746.986,550.078 753.152,545.578 764.5,548C 768.058,549.892 770.558,552.725 772,556.5C 772.667,565.5 772.667,574.5 772,583.5C 770.99,587.843 768.49,591.01 764.5,593C 753.5,593.667 742.5,593.667 731.5,593C 728.5,589.667 725.5,589.667 722.5,593C 716.833,593.667 711.167,593.667 705.5,593C 701.85,591.189 699.517,588.356 698.5,584.5C 697.531,569.215 697.198,553.881 697.5,538.5C 699.5,538.5 701.5,538.5 703.5,538.5C 703.171,553.01 703.504,567.343 704.5,581.5 Z"/></g>
<g><path style="opacity:1" fill="#244a94" d="M 920.5,539.5 C 914.788,545.249 909.788,551.582 905.5,558.5C 903.088,558.756 901.421,557.756 900.5,555.5C 905.122,547.723 910.622,540.723 917,534.5C 918.775,535.77 919.942,537.436 920.5,539.5 Z"/></g>
<g><path style="opacity:1" fill="#3e5e9f" d="M 730.5,558.5 C 730.5,555.833 730.5,553.167 730.5,550.5C 728.833,550.5 727.167,550.5 725.5,550.5C 725.5,553.167 725.5,555.833 725.5,558.5C 723.612,556.012 722.945,553.012 723.5,549.5C 726.247,549.187 728.914,549.52 731.5,550.5C 732.965,553.484 732.631,556.151 730.5,558.5 Z"/></g>
<g><path style="opacity:1" fill="#11408e" d="M 730.5,558.5 C 728.833,558.5 727.167,558.5 725.5,558.5C 725.5,555.833 725.5,553.167 725.5,550.5C 727.167,550.5 728.833,550.5 730.5,550.5C 730.5,553.167 730.5,555.833 730.5,558.5 Z"/></g>
<g><path style="opacity:1" fill="#1f4993" d="M 799.5,553.5 C 801.593,554.045 803.593,554.878 805.5,556C 810.687,560.189 815.52,564.689 820,569.5C 823.244,579.366 820.744,587.199 812.5,593C 803.246,595.489 797.079,592.323 794,583.5C 792.045,575.483 793.879,568.649 799.5,563C 798.783,561.469 797.783,560.136 796.5,559C 797.632,557.235 798.632,555.402 799.5,553.5 Z"/></g>
<g><path style="opacity:1" fill="#f3f4f8" d="M 755.5,557.5 C 764.998,556.169 767.998,560.003 764.5,569C 752.84,571.524 749.84,567.691 755.5,557.5 Z"/></g>
<g><path style="opacity:1" fill="#2b4e97" d="M 277.5,557.5 C 279.833,557.5 282.167,557.5 284.5,557.5C 284.665,560.518 284.498,563.518 284,566.5C 281.667,567.833 279.333,567.833 277,566.5C 276.264,563.408 276.431,560.408 277.5,557.5 Z"/></g>
<g><path style="opacity:1" fill="#1f4993" d="M 614.5,556.5 C 616.39,556.297 617.89,556.963 619,558.5C 619.497,560.81 619.663,563.143 619.5,565.5C 614.684,565.58 610.017,566.414 605.5,568C 603.773,570.904 603.107,574.07 603.5,577.5C 610.702,578.246 617.202,580.58 623,584.5C 625.463,594.808 622.296,602.642 613.5,608C 605.833,608.667 598.167,608.667 590.5,608C 584.746,605.698 580.912,601.531 579,595.5C 578.5,587.507 578.334,579.507 578.5,571.5C 580.833,571.5 583.167,571.5 585.5,571.5C 585.334,578.508 585.5,585.508 586,592.5C 586.792,594.587 587.959,596.421 589.5,598C 593.384,599.097 597.384,599.597 601.5,599.5C 605.616,599.597 609.616,599.097 613.5,598C 615.672,595.507 616.506,592.674 616,589.5C 609.744,588.047 603.578,586.213 597.5,584C 593,568.2 598.666,559.034 614.5,556.5 Z"/></g>
<g><path style="opacity:1" fill="#204994" d="M 186.5,561.5 C 190.514,561.334 194.514,561.501 198.5,562C 202.488,563.448 204.988,566.281 206,570.5C 206.499,575.155 206.666,579.821 206.5,584.5C 214.196,584.831 221.862,584.497 229.5,583.5C 229.808,582.692 230.308,582.025 231,581.5C 231.188,575.252 231.688,569.085 232.5,563C 234.579,562.192 236.579,562.359 238.5,563.5C 243.225,589.436 232.558,599.436 206.5,593.5C 206.088,599.825 203.421,604.991 198.5,609C 194.167,610.833 189.833,612.667 185.5,614.5C 184.723,612.219 183.723,610.052 182.5,608C 186.21,605.638 190.21,603.638 194.5,602C 197.321,599.859 198.654,597.025 198.5,593.5C 187.184,596.302 180.518,592.135 178.5,581C 177.991,572.989 180.658,566.489 186.5,561.5 Z"/></g>
<g><path style="opacity:1" fill="#1e4993" d="M 685.5,567.5 C 686.833,577.833 686.833,588.167 685.5,598.5C 684.996,602.199 683.33,605.365 680.5,608C 675.984,610.424 671.317,612.59 666.5,614.5C 664.933,611.972 664.1,609.306 664,606.5C 667.963,605.4 671.797,603.9 675.5,602C 678.321,599.859 679.654,597.025 679.5,593.5C 663.755,595.921 657.255,589.254 660,573.5C 662.152,562.664 668.652,558.831 679.5,562C 682.185,563.161 684.185,564.994 685.5,567.5 Z"/></g>
<g><path style="opacity:1" fill="#1d4893" d="M 838.5,561.5 C 842.846,561.334 847.179,561.501 851.5,562C 854,563.167 855.833,565 857,567.5C 858.59,577.426 858.923,587.426 858,597.5C 856.718,603.113 853.551,607.28 848.5,610C 844.927,611.371 841.427,612.871 838,614.5C 837.054,612.212 835.887,610.045 834.5,608C 838.254,605.629 842.254,603.629 846.5,602C 849.321,599.859 850.654,597.025 850.5,593.5C 846.154,593.666 841.821,593.499 837.5,593C 835.291,591.127 833.458,588.96 832,586.5C 831.182,580.098 831.516,573.765 833,567.5C 834.36,564.977 836.193,562.977 838.5,561.5 Z"/></g>
<g><path style="opacity:1" fill="#97a6c7" d="M 161.5,562.5 C 160.57,566.4 160.237,570.4 160.5,574.5C 159.838,572.696 159.505,570.696 159.5,568.5C 159.539,566.048 160.206,564.048 161.5,562.5 Z"/></g>
<g><path style="opacity:1" fill="#1d4793" d="M 265.5,566.5 C 266.141,575.599 266.808,584.599 267.5,593.5C 268.277,596.112 269.944,597.945 272.5,599C 278.944,599.915 285.277,599.581 291.5,598C 292.701,597.097 293.535,595.931 294,594.5C 294.5,585.173 294.666,575.839 294.5,566.5C 296.833,566.5 299.167,566.5 301.5,566.5C 301.667,577.172 301.5,587.839 301,598.5C 297.123,607.14 290.456,610.473 281,608.5C 270.418,610.648 263.418,606.648 260,596.5C 259.5,586.506 259.334,576.506 259.5,566.5C 261.5,566.5 263.5,566.5 265.5,566.5 Z"/></g>
<g><path style="opacity:1" fill="#1c4793" d="M 647.5,566.5 C 647.5,577.5 647.5,588.5 647.5,599.5C 646.569,603.841 644.236,607.341 640.5,610C 636.712,611.978 632.879,613.811 629,615.5C 625.189,612.227 625.022,609.06 628.5,606C 634.311,605.513 638.478,602.679 641,597.5C 641.5,587.172 641.666,576.839 641.5,566.5C 643.5,566.5 645.5,566.5 647.5,566.5 Z"/></g>
<g><path style="opacity:1" fill="#f2f4f8" d="M 805.5,568.5 C 812.652,569.5 815.152,573.5 813,580.5C 809.181,585.769 805.181,585.769 801,580.5C 800.182,577.773 800.348,575.106 801.5,572.5C 802.909,571.151 804.243,569.818 805.5,568.5 Z"/></g>
<g><path style="opacity:1" fill="#cdd7e7" d="M 265.5,566.5 C 267.471,575.105 268.138,584.105 267.5,593.5C 266.808,584.599 266.141,575.599 265.5,566.5 Z"/></g>
<g><path style="opacity:1" fill="#1f4993" d="M 330.5,566.5 C 332.833,566.5 335.167,566.5 337.5,566.5C 337.915,578.562 337.415,590.562 336,602.5C 331.633,609.024 325.633,613.357 318,615.5C 315.414,613.249 314.58,610.582 315.5,607.5C 318.28,605.883 321.28,604.716 324.5,604C 326.917,602.337 328.75,600.171 330,597.5C 330.5,587.172 330.666,576.839 330.5,566.5 Z"/></g>
<g><path style="opacity:1" fill="#f0f2f7" d="M 188.5,570.5 C 191.777,570.216 194.943,570.549 198,571.5C 202.908,583.142 199.408,587.142 187.5,583.5C 186.101,579.03 186.434,574.696 188.5,570.5 Z"/></g>
<g><path style="opacity:1" fill="#f4f6fa" d="M 670.5,570.5 C 673.685,570.02 676.519,570.686 679,572.5C 679.499,576.486 679.666,580.486 679.5,584.5C 675.774,584.823 672.107,584.489 668.5,583.5C 666.699,578.667 667.366,574.334 670.5,570.5 Z"/></g>
<g><path style="opacity:1" fill="#f8f9fb" d="M 850.5,572.5 C 850.5,576.167 850.5,579.833 850.5,583.5C 846.833,583.5 843.167,583.5 839.5,583.5C 836.374,573.868 839.708,569.702 849.5,571C 850.056,571.383 850.389,571.883 850.5,572.5 Z"/></g>
<g><path style="opacity:1" fill="#284e96" d="M 448.5,565.5 C 451.394,565.042 453.894,565.709 456,567.5C 456.899,577.893 456.566,588.227 455,598.5C 453.998,602.164 452.164,605.331 449.5,608C 445.08,610.643 440.414,612.809 435.5,614.5C 433.912,612.887 432.912,610.887 432.5,608.5C 432.833,607.833 433.167,607.167 433.5,606.5C 439.768,605.718 444.601,602.718 448,597.5C 448.5,586.839 448.667,576.172 448.5,565.5 Z"/></g>
<g><path style="opacity:1" fill="#526ca6" d="M 647.5,566.5 C 648.117,566.611 648.617,566.944 649,567.5C 649.756,578.372 649.256,589.039 647.5,599.5C 647.5,588.5 647.5,577.5 647.5,566.5 Z"/></g>
<g><path style="opacity:1" fill="#4967a2" d="M 685.5,567.5 C 686.268,568.263 686.768,569.263 687,570.5C 687.667,579.167 687.667,587.833 687,596.5C 686.722,597.416 686.222,598.082 685.5,598.5C 686.833,588.167 686.833,577.833 685.5,567.5 Z"/></g>
<g><path style="opacity:1" fill="#4368a5" d="M 878.5,566.5 C 879.143,577.552 878.476,588.219 876.5,598.5C 877.145,587.735 877.812,577.068 878.5,566.5 Z"/></g>
<g><path style="opacity:1" fill="#bbc8de" d="M 850.5,572.5 C 851.483,576.298 851.817,580.298 851.5,584.5C 847.298,584.817 843.298,584.483 839.5,583.5C 843.167,583.5 846.833,583.5 850.5,583.5C 850.5,579.833 850.5,576.167 850.5,572.5 Z"/></g>
<g><path style="opacity:1" fill="#294c95" d="M 505.5,602.5 C 508.119,602.232 510.619,602.565 513,603.5C 513.497,606.146 513.664,608.813 513.5,611.5C 510.5,611.5 507.5,611.5 504.5,611.5C 504.264,608.391 504.597,605.391 505.5,602.5 Z"/></g>
<g><path style="opacity:1" fill="#305198" d="M 142.5,602.5 C 150.159,601.01 152.492,603.843 149.5,611C 146.854,611.497 144.187,611.664 141.5,611.5C 141.264,608.391 141.597,605.391 142.5,602.5 Z"/></g>
<g><path style="opacity:1" fill="#1b4591" d="M 152.5,602.5 C 155.167,602.5 157.833,602.5 160.5,602.5C 160.5,605.5 160.5,608.5 160.5,611.5C 157.833,611.5 155.167,611.5 152.5,611.5C 152.5,608.5 152.5,605.5 152.5,602.5 Z"/></g>
<g><path style="opacity:1" fill="#1b4591" d="M 214.5,602.5 C 216.833,602.5 219.167,602.5 221.5,602.5C 221.5,605.833 221.5,609.167 221.5,612.5C 222.5,612.5 223.5,612.5 224.5,612.5C 224.5,609.167 224.5,605.833 224.5,602.5C 227.119,602.232 229.619,602.565 232,603.5C 232.497,606.146 232.664,608.813 232.5,611.5C 230.856,611.286 229.356,611.62 228,612.5C 227.502,615.482 227.335,618.482 227.5,621.5C 224.833,621.5 222.167,621.5 219.5,621.5C 219.665,618.482 219.498,615.482 219,612.5C 217.301,611.594 215.467,611.261 213.5,611.5C 213.264,608.391 213.597,605.391 214.5,602.5 Z"/></g>
</svg>
